<svg xmlns="http://www.w3.org/2000/svg" xmlns:svg="http://www.w3.org/2000/svg" xmlns:xlink="http://www.w3.org/1999/xlink" version="1.0" height="1171pt" width="1136.2pt" viewBox="100 32 1144.2 1177" ><defs><style type="text/css">
            @font-face {
                font-family: 'noto_regular';
                src: url('https://app.creately.com/diagram/assets/fonts/noto/noto-regular.woff') format('woff'),
                     url('https://app.creately.com/diagram/assets/fonts/noto/noto-regular.woff2') format('woff2');
                font-weight: normal;
                font-style: normal;
            }
        p {
            margin: 0;
        }
        </style></defs><defs><style>
            span{ display: inline-block; }
        </style></defs><g id="1j537827lm"><g transform="translate(302.20000000000005 35)"><rect x="0" y="0" width="939" height="57" fill="rgba(255,255,255,0.01)" stroke="rgba(255,255,255,0.01)" stroke-width="NaN" stroke-linecap="round" stroke-linejoin="round"/></g><g transform="translate(480.70000000000005, 51.5) rotate(0, 291, 12)" width="582" height="24"><text text-decoration="none" x="46.5" fill="rgb(0, 0, 0)" font-weight="bold" font-size="15pt" font-family="Arial"  y="19">E-R&#160;</text><text text-decoration="none" x="83.5" fill="rgb(0, 0, 0)" font-weight="bold" font-size="15pt" font-family="Arial"  y="19">DIAGRAM&#160;</text><text text-decoration="none" x="178.5" fill="rgb(0, 0, 0)" font-weight="bold" font-size="15pt" font-family="Arial"  y="19">FOR&#160;</text><text text-decoration="none" x="221.5" fill="rgb(0, 0, 0)" font-weight="bold" font-size="15pt" font-family="Arial"  y="19">EMPLOYEE&#160;</text><text text-decoration="none" x="327.5" fill="rgb(0, 0, 0)" font-weight="bold" font-size="15pt" font-family="Arial"  y="19">ATTENDANCE&#160;</text><text text-decoration="none" x="458.5" fill="rgb(0, 0, 0)" font-weight="bold" font-size="15pt" font-family="Arial"  y="19">SYSTEM</text><text text-decoration="none" x="535.5" fill="#4b4b4b" font-size="10pt" font-family="noto_regular"  y="19"></text></g></g><g id="cgyq5k5a8q"><g transform="translate(670 325)"><linearGradient id="51565" x1="51" y1="85.50000071525574" x2="51" y2="0" gradientUnits="userSpaceOnUse"><stop offset="0%" stop-color="rgba(255,255,255,1)"/><stop offset="100%" stop-color="rgba(22,188,180,1)"/></linearGradient><rect x="0" y="0" width="102" height="57.00000047683716" fill="url(#51565)" stroke="#438ccb" stroke-width="1.5" stroke-linecap="round" stroke-linejoin="round"/></g><g transform="translate(671, 336.0000002384186) rotate(0, 50, 17.5)" width="100" height="35"><text text-decoration="none" x="10.5" fill="rgb(0, 0, 0)" font-weight="bold" font-size="10pt" font-family="Arial"  y="12">Administrator</text><text text-decoration="none" x="89.5" fill="rgb(0, 0, 0)" font-weight="bold" font-size="10pt" font-family="Arial"  y="12"></text><text text-decoration="none" x="50" fill="#4b4b4b" font-size="10pt" font-family="noto_regular"  y="31"></text></g></g><g id="1m7go8enz1"><g transform="translate(580 180)"><linearGradient id="bf9c6" x1="50.5" y1="-25.5" x2="50.5" y2="51" gradientUnits="userSpaceOnUse"><stop offset="0%" stop-color="rgba(255,255,255,1)"/><stop offset="100%" stop-color="rgba(156,201,37,1)"/></linearGradient><ellipse cx="50.5" cy="25.5" rx="50.5" ry="25.5" fill="url(#bf9c6)" stroke="#045f20" stroke-width="2" stroke-linecap="round" stroke-linejoin="round"/></g><g transform="translate(605.5, 196) rotate(0, 25, 9.5)" width="50" height="19"><text text-decoration="none" x="5.5" fill="rgb(93, 128, 5)" font-weight="bold" font-size="10pt" font-family="Arial"  y="15">Fname</text><text text-decoration="none" x="44.5" fill="#4b4b4b" font-size="10pt" font-family="noto_regular"  y="15"></text></g></g><g id="18zdpfeuxc"><g transform="translate(770 185)"><linearGradient id="bf9c6" x1="50.5" y1="-25.5" x2="50.5" y2="51" gradientUnits="userSpaceOnUse"><stop offset="0%" stop-color="rgba(255,255,255,1)"/><stop offset="100%" stop-color="rgba(156,201,37,1)"/></linearGradient><ellipse cx="50.5" cy="25.5" rx="50.5" ry="25.5" fill="url(#bf9c6)" stroke="#045f20" stroke-width="2" stroke-linecap="round" stroke-linejoin="round"/></g><g transform="translate(796, 201) rotate(0, 24.5, 9.5)" width="49" height="19"><text text-decoration="none" x="5" fill="rgb(93, 128, 5)" font-weight="bold" font-size="10pt" font-family="Arial"  y="15">Lname</text><text text-decoration="none" x="44" fill="#4b4b4b" font-size="10pt" font-family="noto_regular"  y="15"></text></g></g><g id="207xntzb1m"><g transform="translate(680 105)"><linearGradient id="bf9c6" x1="50.5" y1="-25.5" x2="50.5" y2="51" gradientUnits="userSpaceOnUse"><stop offset="0%" stop-color="rgba(255,255,255,1)"/><stop offset="100%" stop-color="rgba(156,201,37,1)"/></linearGradient><ellipse cx="50.5" cy="25.5" rx="50.5" ry="25.5" fill="url(#bf9c6)" stroke="#045f20" stroke-width="2" stroke-linecap="round" stroke-linejoin="round"/></g><g transform="translate(722.5, 121) rotate(0, 8, 9.5)" width="16" height="19"><text text-decoration="none" x="2" fill="rgb(93, 128, 5)" font-weight="bold" font-size="10pt" font-family="Arial"  y="15">ID</text><text text-decoration="none" x="14" fill="#4b4b4b" font-size="10pt" font-family="noto_regular"  y="15"></text></g></g><g id="1gqnrhp3mo"><g transform="translate(845 265)"><linearGradient id="bf9c6" x1="50.5" y1="-25.5" x2="50.5" y2="51" gradientUnits="userSpaceOnUse"><stop offset="0%" stop-color="rgba(255,255,255,1)"/><stop offset="100%" stop-color="rgba(156,201,37,1)"/></linearGradient><ellipse cx="50.5" cy="25.5" rx="50.5" ry="25.5" fill="url(#bf9c6)" stroke="#045f20" stroke-width="2" stroke-linecap="round" stroke-linejoin="round"/></g><g transform="translate(848, 281) rotate(0, 47.5, 9.5)" width="95" height="19"><text text-decoration="none" x="12" fill="rgb(93, 128, 5)" font-weight="bold" font-size="10pt" font-family="Arial"  y="15">Date&#160;</text><text text-decoration="none" x="41" fill="rgb(93, 128, 5)" font-weight="bold" font-size="10pt" font-family="Arial"  y="15">of&#160;</text><text text-decoration="none" x="56" fill="rgb(93, 128, 5)" font-weight="bold" font-size="10pt" font-family="Arial"  y="15">Birth</text><text text-decoration="none" x="83" fill="#4b4b4b" font-size="10pt" font-family="noto_regular"  y="15"></text></g></g><g id="1dyhewtvbc"><g transform="translate(485 265)"><linearGradient id="bf9c6" x1="50.5" y1="-25.5" x2="50.5" y2="51" gradientUnits="userSpaceOnUse"><stop offset="0%" stop-color="rgba(255,255,255,1)"/><stop offset="100%" stop-color="rgba(156,201,37,1)"/></linearGradient><ellipse cx="50.5" cy="25.5" rx="50.5" ry="25.5" fill="url(#bf9c6)" stroke="#045f20" stroke-width="2" stroke-linecap="round" stroke-linejoin="round"/></g><g transform="translate(506, 281) rotate(0, 29.5, 9.5)" width="59" height="19"><text text-decoration="none" x="5" fill="rgb(93, 128, 5)" font-weight="bold" font-size="10pt" font-family="Arial"  y="15">Address</text><text text-decoration="none" x="54" fill="#4b4b4b" font-size="10pt" font-family="noto_regular"  y="15"></text></g></g><g id="pdkr2b01pa"><g><path d="M 630,230 L 720,325" fill="none" stroke="#f16c4d" stroke-width="1.5" stroke-linecap="round" stroke-linejoin="round"/></g></g><g id="151v98lfny"><g><path d="M 820,235 L 720,325" fill="none" stroke="#f16c4d" stroke-width="1.5" stroke-linecap="round" stroke-linejoin="round"/></g></g><g id="c6qlw7z95t"><g><path d="M 730,155 L 720,325" fill="none" stroke="#f16c4d" stroke-width="1.5" stroke-linecap="round" stroke-linejoin="round"/></g></g><g id="1x59dccmq9"><g><path d="M 585,290 L 670,355" fill="none" stroke="#f16c4d" stroke-width="1.5" stroke-linecap="round" stroke-linejoin="round"/></g></g><g id="cd2bilcgwe"><g><path d="M 845,290 L 770,355" fill="none" stroke="#f16c4d" stroke-width="1.5" stroke-linecap="round" stroke-linejoin="round"/></g></g><g id="7s2i6xbo5l"><g transform="translate(305 755)"><path d="M 134.65471267700195,32.35324323177338 L 67.32735633850098,64.70648646354675 L 0,32.35324323177338 L 67.32735633850098,0 Z" fill="rgb(250, 229, 147)" stroke="rgb(237, 119, 16)" stroke-width="2" vector-effect="non-scaling-stroke" stroke-dasharray=""/></g><g transform="translate(349.44, 776.93) rotate(0, 0, 0)" width="51" height="19"><text text-decoration="none" x="0" fill="#c75000" font-weight="bold" font-size="11pt" font-family="Arial"  y="15">takes&#160;</text><text text-decoration="none" x="41" fill="#4b4b4b" font-size="10pt" font-family="noto_regular"  y="15"></text></g></g><g id="cx1tyrqqw7"><g transform="translate(325 600)"><linearGradient id="b3e3e" x1="50.99922180175781" y1="78" x2="50.99922180175781" y2="0" gradientUnits="userSpaceOnUse"><stop offset="0%" stop-color="rgba(255,255,255,1)"/><stop offset="100%" stop-color="rgba(22,188,180,1)"/></linearGradient><rect x="0" y="0" width="101.99844360351562" height="52" fill="url(#b3e3e)" stroke="#438ccb" stroke-width="1.5" stroke-linecap="round" stroke-linejoin="round"/></g><g transform="translate(340.4992218017578, 616.5) rotate(0, 35.5, 9.5)" width="71" height="19"><text text-decoration="none" x="7.5" fill="rgb(0, 0, 0)" font-weight="bold" font-size="10pt" font-family="Arial"  y="15">Employee</text><text text-decoration="none" x="63.5" fill="#4b4b4b" font-size="10pt" font-family="noto_regular"  y="15"></text></g></g><g id="3t2vtrnnfw"><g transform="translate(165 730)"><linearGradient id="8d417" x1="45.9998779296875" y1="-25.5" x2="45.9998779296875" y2="51" gradientUnits="userSpaceOnUse"><stop offset="0%" stop-color="rgba(255,255,255,1)"/><stop offset="100%" stop-color="rgba(156,201,37,1)"/></linearGradient><ellipse cx="45.9998779296875" cy="25.5" rx="45.9998779296875" ry="25.5" fill="url(#8d417)" stroke="#045f20" stroke-width="2" stroke-linecap="round" stroke-linejoin="round"/></g><g transform="translate(170.4998779296875, 738) rotate(0, 40.5, 17.5)" width="81" height="35"><text text-decoration="none" x="9" fill="rgb(93, 128, 5)" font-weight="bold" font-size="10pt" font-family="Arial"  y="12">First&#160;</text><text text-decoration="none" x="38" fill="rgb(93, 128, 5)" font-weight="bold" font-size="10pt" font-family="Arial"  y="12">Name</text><text text-decoration="none" x="72" fill="rgb(93, 128, 5)" font-weight="bold" font-size="10pt" font-family="Arial"  y="12"></text><text text-decoration="none" x="40.5" fill="#4b4b4b" font-size="10pt" font-family="noto_regular"  y="31"></text></g></g><g id="8dqpqhyob5"><g transform="translate(160 485)"><linearGradient id="bf9c6" x1="50.5" y1="-25.5" x2="50.5" y2="51" gradientUnits="userSpaceOnUse"><stop offset="0%" stop-color="rgba(255,255,255,1)"/><stop offset="100%" stop-color="rgba(156,201,37,1)"/></linearGradient><ellipse cx="50.5" cy="25.5" rx="50.5" ry="25.5" fill="url(#bf9c6)" stroke="#045f20" stroke-width="2" stroke-linecap="round" stroke-linejoin="round"/></g><g transform="translate(163, 493) rotate(0, 47.5, 17.5)" width="95" height="35"><text text-decoration="none" x="12" fill="rgb(93, 128, 5)" font-weight="bold" font-size="10pt" font-family="Arial"  y="12">Date&#160;</text><text text-decoration="none" x="41" fill="rgb(93, 128, 5)" font-weight="bold" font-size="10pt" font-family="Arial"  y="12">of&#160;</text><text text-decoration="none" x="56" fill="rgb(93, 128, 5)" font-weight="bold" font-size="10pt" font-family="Arial"  y="12">Birth</text><text text-decoration="none" x="83" fill="rgb(93, 128, 5)" font-weight="bold" font-size="10pt" font-family="Arial"  y="12"></text><text text-decoration="none" x="47.5" fill="#4b4b4b" font-size="10pt" font-family="noto_regular"  y="31"></text></g></g><g id="5jbm4hdaug"><g><path d="M 255,755 L 325,625" fill="none" stroke="#f16c4d" stroke-width="1.5" stroke-linecap="round" stroke-linejoin="round"/></g></g><g id="1hwfaobc3k"><g><path d="M 210,535 L 325,625" fill="none" stroke="#f7977a" stroke-width="1.5" stroke-linecap="round" stroke-linejoin="round"/></g></g><g id="7ubwywmf67"><g transform="translate(545 495)"><linearGradient id="bf9c6" x1="50.5" y1="-25.5" x2="50.5" y2="51" gradientUnits="userSpaceOnUse"><stop offset="0%" stop-color="rgba(255,255,255,1)"/><stop offset="100%" stop-color="rgba(156,201,37,1)"/></linearGradient><ellipse cx="50.5" cy="25.5" rx="50.5" ry="25.5" fill="url(#bf9c6)" stroke="#045f20" stroke-width="2" stroke-linecap="round" stroke-linejoin="round"/></g><g transform="translate(563, 511) rotate(0, 32.5, 9.5)" width="65" height="19"><text text-decoration="none" x="6.5" fill="rgb(93, 128, 5)" font-weight="bold" font-size="10pt" font-family="Arial"  y="15">Surname</text><text text-decoration="none" x="58.5" fill="#4b4b4b" font-size="10pt" font-family="noto_regular"  y="15"></text></g></g><g id="t4mkpirqw8"><g><path d="M 425,625 L 545,520" fill="none" stroke="#f16c4d" stroke-width="1.5" stroke-linecap="round" stroke-linejoin="round"/></g></g><g id="4oie738h2w"><g transform="translate(495 740)"><linearGradient id="bf9c6" x1="50.5" y1="-25.5" x2="50.5" y2="51" gradientUnits="userSpaceOnUse"><stop offset="0%" stop-color="rgba(255,255,255,1)"/><stop offset="100%" stop-color="rgba(156,201,37,1)"/></linearGradient><ellipse cx="50.5" cy="25.5" rx="50.5" ry="25.5" fill="url(#bf9c6)" stroke="#045f20" stroke-width="2" stroke-linecap="round" stroke-linejoin="round"/></g><g transform="translate(516, 756) rotate(0, 29.5, 9.5)" width="59" height="19"><text text-decoration="none" x="5" fill="rgb(93, 128, 5)" font-weight="bold" font-size="10pt" font-family="Arial"  y="15">Address</text><text text-decoration="none" x="54" fill="#4b4b4b" font-size="10pt" font-family="noto_regular"  y="15"></text></g></g><g id="2plthxb8xo"><g><path d="M 425,625 L 545,740" fill="none" stroke="#f16c4d" stroke-width="1.5" stroke-linecap="round" stroke-linejoin="round"/></g></g><g id="28pjasj70t"><g transform="translate(600.75 985)"><linearGradient id="614b0" x1="53.71276867389679" y1="78" x2="53.71276867389679" y2="0" gradientUnits="userSpaceOnUse"><stop offset="0%" stop-color="rgba(255,255,255,1)"/><stop offset="100%" stop-color="rgba(22,188,180,1)"/></linearGradient><rect x="0" y="0" width="107.42553734779358" height="52" fill="url(#614b0)" stroke="#438ccb" stroke-width="1.5" stroke-linecap="round" stroke-linejoin="round"/></g><g transform="translate(612.4627686738968, 993.5) rotate(0, 42, 17.5)" width="84" height="35"><text text-decoration="none" x="9" fill="rgb(0, 0, 0)" font-weight="bold" font-size="10pt" font-family="Arial"  y="12">Attendance</text><text text-decoration="none" x="75" fill="rgb(0, 0, 0)" font-weight="bold" font-size="10pt" font-family="Arial"  y="12"></text><text text-decoration="none" x="42" fill="#4b4b4b" font-size="10pt" font-family="noto_regular"  y="31"></text></g></g><g id="1zc9cgsv6s"><g transform="translate(390 935)"><linearGradient id="d8e99" x1="53.186172902584076" y1="-25.5" x2="53.186172902584076" y2="51" gradientUnits="userSpaceOnUse"><stop offset="0%" stop-color="rgba(255,255,255,1)"/><stop offset="100%" stop-color="rgba(156,201,37,1)"/></linearGradient><ellipse cx="53.186172902584076" cy="25.5" rx="53.186172902584076" ry="25.5" fill="url(#d8e99)" stroke="#045f20" stroke-width="2" stroke-linecap="round" stroke-linejoin="round"/></g><g transform="translate(398.6861729025841, 943) rotate(0, 44.5, 17.5)" width="89" height="35"><text text-decoration="none" x="10" fill="rgb(93, 128, 5)" font-weight="bold" font-size="10pt" font-family="Arial"  y="12">Sign_in&#160;</text><text text-decoration="none" x="54" fill="rgb(93, 128, 5)" font-weight="bold" font-size="10pt" font-family="Arial"  y="12">time</text><text text-decoration="none" x="79" fill="rgb(93, 128, 5)" font-weight="bold" font-size="10pt" font-family="Arial"  y="12"></text><text text-decoration="none" x="44.5" fill="#4b4b4b" font-size="10pt" font-family="noto_regular"  y="31"></text></g></g><g id="2gna2t4yrs"><g transform="translate(415 1095)"><linearGradient id="bf9c6" x1="50.5" y1="-25.5" x2="50.5" y2="51" gradientUnits="userSpaceOnUse"><stop offset="0%" stop-color="rgba(255,255,255,1)"/><stop offset="100%" stop-color="rgba(156,201,37,1)"/></linearGradient><ellipse cx="50.5" cy="25.5" rx="50.5" ry="25.5" fill="url(#bf9c6)" stroke="#045f20" stroke-width="2" stroke-linecap="round" stroke-linejoin="round"/></g><g transform="translate(433, 1103) rotate(0, 32.5, 17.5)" width="65" height="35"><text text-decoration="none" x="6.5" fill="rgb(93, 128, 5)" font-weight="bold" font-size="10pt" font-family="Arial"  y="12">Remarks</text><text text-decoration="none" x="58.5" fill="rgb(93, 128, 5)" font-weight="bold" font-size="10pt" font-family="Arial"  y="12"></text><text text-decoration="none" x="32.5" fill="#4b4b4b" font-size="10pt" font-family="noto_regular"  y="31"></text></g></g><g id="29zk0pu01u"><g transform="translate(765 950)"><linearGradient id="bf9c6" x1="50.5" y1="-25.5" x2="50.5" y2="51" gradientUnits="userSpaceOnUse"><stop offset="0%" stop-color="rgba(255,255,255,1)"/><stop offset="100%" stop-color="rgba(156,201,37,1)"/></linearGradient><ellipse cx="50.5" cy="25.5" rx="50.5" ry="25.5" fill="url(#bf9c6)" stroke="#045f20" stroke-width="2" stroke-linecap="round" stroke-linejoin="round"/></g><g transform="translate(798, 966) rotate(0, 17.5, 9.5)" width="35" height="19"><text text-decoration="none" x="4.5" fill="rgb(93, 128, 5)" font-weight="bold" font-size="10pt" font-family="Arial"  y="15">Date</text><text text-decoration="none" x="30.5" fill="#4b4b4b" font-size="10pt" font-family="noto_regular"  y="15"></text></g></g><g id="2gzknoogbv"><g transform="translate(830 1040)"><linearGradient id="09df4" x1="47.49940490722656" y1="-25.5" x2="47.49940490722656" y2="51" gradientUnits="userSpaceOnUse"><stop offset="0%" stop-color="rgba(255,255,255,1)"/><stop offset="100%" stop-color="rgba(156,201,37,1)"/></linearGradient><ellipse cx="47.49940490722656" cy="25.5" rx="47.49940490722656" ry="25.5" fill="url(#09df4)" stroke="#045f20" stroke-width="2" stroke-linecap="round" stroke-linejoin="round"/></g><g transform="translate(836.9994049072266, 1056) rotate(0, 40.5, 9.5)" width="81" height="19"><text text-decoration="none" x="9" fill="rgb(93, 128, 5)" font-weight="bold" font-size="10pt" font-family="Arial"  y="15">First&#160;</text><text text-decoration="none" x="38" fill="rgb(93, 128, 5)" font-weight="bold" font-size="10pt" font-family="Arial"  y="15">Name</text><text text-decoration="none" x="72" fill="#4b4b4b" font-size="10pt" font-family="noto_regular"  y="15"></text></g></g><g id="2okece0hww"><g><path d="M 515,1120 L 600.75,1010" fill="none" stroke="#f16c4d" stroke-width="1.5" stroke-linecap="round" stroke-linejoin="round"/></g></g><g id="2jf8l04akj"><g><path d="M 830,1065 L 705.75,1010" fill="none" stroke="#f16c4d" stroke-width="1.5" stroke-linecap="round" stroke-linejoin="round"/></g></g><g id="1llzec4dgb"><g><path d="M 765,975 L 705.75,1010" fill="none" stroke="#f16c4d" stroke-width="1.5" stroke-linecap="round" stroke-linejoin="round"/></g></g><g id="2erbvhctiz"><g><path d="M 495,960 L 600.75,1010" fill="none" stroke="#f16c4d" stroke-width="1.5" stroke-linecap="round" stroke-linejoin="round"/></g></g><g id="23aw1i94ai"><g><path d="M 655.75,985 L 375,820" fill="none" stroke="#7b3000" stroke-width="1.5" stroke-linecap="round" stroke-linejoin="round"/></g></g><g id="p0565v7nmv"><g><path d="M 375,650 L 375,755" fill="none" stroke="#7b3000" stroke-width="1.5" stroke-linecap="round" stroke-linejoin="round"/></g></g><g id="2czaw6ac1o"><g transform="translate(565 580)"><linearGradient id="bf9c6" x1="50.5" y1="-25.5" x2="50.5" y2="51" gradientUnits="userSpaceOnUse"><stop offset="0%" stop-color="rgba(255,255,255,1)"/><stop offset="100%" stop-color="rgba(156,201,37,1)"/></linearGradient><ellipse cx="50.5" cy="25.5" rx="50.5" ry="25.5" fill="url(#bf9c6)" stroke="#045f20" stroke-width="2" stroke-linecap="round" stroke-linejoin="round"/></g><g transform="translate(587, 596) rotate(0, 28.5, 9.5)" width="57" height="19"><text text-decoration="none" x="6" fill="rgb(93, 128, 5)" font-weight="bold" font-size="10pt" font-family="Arial"  y="15">Contact</text><text text-decoration="none" x="51" fill="#4b4b4b" font-size="10pt" font-family="noto_regular"  y="15"></text></g></g><g id="1zzzq61fi8"><g><path d="M 425,625 L 565,605" fill="none" stroke="#f16c4d" stroke-width="1.5" stroke-linecap="round" stroke-linejoin="round"/></g></g><g id="1mx4249h16"><mask id="88a70" x="362" y="637" width="26" height="131" maskUnits="userSpaceOnUse"><rect x="362" y="637" width="26" height="131" fill="white" /><rect x="368.5" y="690" width="13" height="25" fill="black" /><rect x="368.5" y="690" width="13" height="25" fill="black" /></mask><g mask="url(#88a70)"><path d="M 375,650 L 375,755" fill="none" stroke="#7b3000" stroke-width="1.5" stroke-linecap="round" stroke-linejoin="round"/></g><g transform="translate(371.5, 693)" width="7" height="19"><text text-decoration="none" x="0.5" fill="rgb(0, 0, 0)" font-size="9pt" font-family="Arial"  y="15">v</text><text text-decoration="none" x="6.5" fill="#4b4b4b" font-size="10pt" font-family="noto_regular"  y="15"></text></g><g transform="translate(371.5, 693)" width="7" height="19"><text text-decoration="none" x="0.5" fill="rgb(0, 0, 0)" font-size="9pt" font-family="Arial"  y="15">v</text><text text-decoration="none" x="6.5" fill="#4b4b4b" font-size="10pt" font-family="noto_regular"  y="15"></text></g></g><g id="1u6erfiz9k"><g transform="translate(130 645)"><linearGradient id="bf9c6" x1="50.5" y1="-25.5" x2="50.5" y2="51" gradientUnits="userSpaceOnUse"><stop offset="0%" stop-color="rgba(255,255,255,1)"/><stop offset="100%" stop-color="rgba(156,201,37,1)"/></linearGradient><ellipse cx="50.5" cy="25.5" rx="50.5" ry="25.5" fill="url(#bf9c6)" stroke="#045f20" stroke-width="2" stroke-linecap="round" stroke-linejoin="round"/></g><g transform="translate(154, 661) rotate(0, 26.5, 9.5)" width="53" height="19"><text text-decoration="none" x="5.5" fill="rgb(93, 128, 5)" font-weight="bold" font-size="10pt" font-family="Arial"  y="15">Gender</text><text text-decoration="none" x="47.5" fill="#4b4b4b" font-size="10pt" font-family="noto_regular"  y="15"></text></g></g><g id="1m2zx9e05z"><g><path d="M 230,670 L 325,625" fill="none" stroke="#f7977a" stroke-width="1.5" stroke-linecap="round" stroke-linejoin="round"/></g></g><g id="qe2sjqvwoh"><g transform="translate(545 660)"><linearGradient id="bf9c6" x1="50.5" y1="-25.5" x2="50.5" y2="51" gradientUnits="userSpaceOnUse"><stop offset="0%" stop-color="rgba(255,255,255,1)"/><stop offset="100%" stop-color="rgba(156,201,37,1)"/></linearGradient><ellipse cx="50.5" cy="25.5" rx="50.5" ry="25.5" fill="url(#bf9c6)" stroke="#045f20" stroke-width="2" stroke-linecap="round" stroke-linejoin="round"/></g><g transform="translate(551.5, 676) rotate(0, 44, 9.5)" width="88" height="19"><text text-decoration="none" x="10.5" fill="rgb(93, 128, 5)" font-weight="bold" font-size="10pt" font-family="Arial"  y="15">Department</text><text text-decoration="none" x="77.5" fill="#4b4b4b" font-size="10pt" font-family="noto_regular"  y="15"></text></g></g><g id="2oxa7uzpbs"><g><path d="M 425,625 L 545,685" fill="none" stroke="#f16c4d" stroke-width="1.5" stroke-linecap="round" stroke-linejoin="round"/></g></g><g id="6jrb5glste"><g transform="translate(395.25 1010)"><linearGradient id="d8e99" x1="53.186172902584076" y1="-25.5" x2="53.186172902584076" y2="51" gradientUnits="userSpaceOnUse"><stop offset="0%" stop-color="rgba(255,255,255,1)"/><stop offset="100%" stop-color="rgba(156,201,37,1)"/></linearGradient><ellipse cx="53.186172902584076" cy="25.5" rx="53.186172902584076" ry="25.5" fill="url(#d8e99)" stroke="#045f20" stroke-width="2" stroke-linecap="round" stroke-linejoin="round"/></g><g transform="translate(398.4361729025841, 1018) rotate(0, 50, 17.5)" width="100" height="35"><text text-decoration="none" x="11.5" fill="rgb(93, 128, 5)" font-weight="bold" font-size="10pt" font-family="Arial"  y="12">Sign_out&#160;</text><text text-decoration="none" x="63.5" fill="rgb(93, 128, 5)" font-weight="bold" font-size="10pt" font-family="Arial"  y="12">time</text><text text-decoration="none" x="88.5" fill="rgb(93, 128, 5)" font-weight="bold" font-size="10pt" font-family="Arial"  y="12"></text><text text-decoration="none" x="50" fill="#4b4b4b" font-size="10pt" font-family="noto_regular"  y="31"></text></g></g><g id="1z7akzlc66"><g><path d="M 500.25,1035 L 600.75,1010" fill="none" stroke="#f16c4d" stroke-width="1.5" stroke-linecap="round" stroke-linejoin="round"/></g></g><g id="bmls89fwb8"><g transform="translate(105 570)"><linearGradient id="bf9c6" x1="50.5" y1="-25.5" x2="50.5" y2="51" gradientUnits="userSpaceOnUse"><stop offset="0%" stop-color="rgba(255,255,255,1)"/><stop offset="100%" stop-color="rgba(156,201,37,1)"/></linearGradient><ellipse cx="50.5" cy="25.5" rx="50.5" ry="25.5" fill="url(#bf9c6)" stroke="#045f20" stroke-width="2" stroke-linecap="round" stroke-linejoin="round"/></g><g transform="translate(115.5, 578) rotate(0, 40, 17.5)" width="80" height="35"><text text-decoration="none" x="9" fill="rgb(93, 128, 5)" font-weight="bold" font-size="10pt" font-family="Arial"  y="12">Fingerprint</text><text text-decoration="none" x="71" fill="rgb(93, 128, 5)" font-weight="bold" font-size="10pt" font-family="Arial"  y="12"></text><text text-decoration="none" x="40" fill="#4b4b4b" font-size="10pt" font-family="noto_regular"  y="31"></text></g></g><g id="kf4wigamg7"><g><path d="M 205,595 L 325,625" fill="none" stroke="#f7977a" stroke-width="1.5" stroke-linecap="round" stroke-linejoin="round"/></g></g><g id="1f1ctnsul3"><g transform="translate(910 660)"><linearGradient id="614b0" x1="53.71276867389679" y1="78" x2="53.71276867389679" y2="0" gradientUnits="userSpaceOnUse"><stop offset="0%" stop-color="rgba(255,255,255,1)"/><stop offset="100%" stop-color="rgba(22,188,180,1)"/></linearGradient><rect x="0" y="0" width="107.42553734779358" height="52" fill="url(#614b0)" stroke="#438ccb" stroke-width="1.5" stroke-linecap="round" stroke-linejoin="round"/></g><g transform="translate(934.2127686738968, 668.5) rotate(0, 29.5, 17.5)" width="59" height="35"><text text-decoration="none" x="5.5" fill="rgb(0, 0, 0)" font-weight="bold" font-size="10pt" font-family="Arial"  y="12">Account</text><text text-decoration="none" x="53.5" fill="rgb(0, 0, 0)" font-weight="bold" font-size="10pt" font-family="Arial"  y="12"></text><text text-decoration="none" x="29.5" fill="#4b4b4b" font-size="10pt" font-family="noto_regular"  y="31"></text></g></g><g id="1fs7qzytpt"><g transform="translate(765 730)"><linearGradient id="d8e99" x1="53.186172902584076" y1="-25.5" x2="53.186172902584076" y2="51" gradientUnits="userSpaceOnUse"><stop offset="0%" stop-color="rgba(255,255,255,1)"/><stop offset="100%" stop-color="rgba(156,201,37,1)"/></linearGradient><ellipse cx="53.186172902584076" cy="25.5" rx="53.186172902584076" ry="25.5" fill="url(#d8e99)" stroke="#045f20" stroke-width="2" stroke-linecap="round" stroke-linejoin="round"/></g><g transform="translate(783.1861729025841, 746) rotate(0, 35, 9.5)" width="70" height="19"><text text-decoration="none" x="6.5" fill="rgb(93, 128, 5)" font-weight="bold" font-size="10pt" font-family="Arial"  y="15">password</text><text text-decoration="none" x="63.5" fill="#4b4b4b" font-size="10pt" font-family="noto_regular"  y="15"></text></g></g><g id="1w31n2otza"><g transform="translate(1080 570)"><linearGradient id="bf9c6" x1="50.5" y1="-25.5" x2="50.5" y2="51" gradientUnits="userSpaceOnUse"><stop offset="0%" stop-color="rgba(255,255,255,1)"/><stop offset="100%" stop-color="rgba(156,201,37,1)"/></linearGradient><ellipse cx="50.5" cy="25.5" rx="50.5" ry="25.5" fill="url(#bf9c6)" stroke="#045f20" stroke-width="2" stroke-linecap="round" stroke-linejoin="round"/></g><g transform="translate(1097.5, 578) rotate(0, 33, 17.5)" width="66" height="35"><text text-decoration="none" x="6.5" fill="rgb(93, 128, 5)" font-weight="bold" font-size="10pt" font-family="Arial"  y="12">Usertype</text><text text-decoration="none" x="59.5" fill="rgb(93, 128, 5)" font-weight="bold" font-size="10pt" font-family="Arial"  y="12"></text><text text-decoration="none" x="33" fill="#4b4b4b" font-size="10pt" font-family="noto_regular"  y="31"></text></g></g><g id="1nhn2k79ml"><g transform="translate(1095 705)"><linearGradient id="09df4" x1="47.49940490722656" y1="-25.5" x2="47.49940490722656" y2="51" gradientUnits="userSpaceOnUse"><stop offset="0%" stop-color="rgba(255,255,255,1)"/><stop offset="100%" stop-color="rgba(156,201,37,1)"/></linearGradient><ellipse cx="47.49940490722656" cy="25.5" rx="47.49940490722656" ry="25.5" fill="url(#09df4)" stroke="#045f20" stroke-width="2" stroke-linecap="round" stroke-linejoin="round"/></g><g transform="translate(1104.9994049072266, 721) rotate(0, 37.5, 9.5)" width="75" height="19"><text text-decoration="none" x="7.5" fill="rgb(93, 128, 5)" font-weight="bold" font-size="10pt" font-family="Arial"  y="15">Username</text><text text-decoration="none" x="67.5" fill="#4b4b4b" font-size="10pt" font-family="noto_regular"  y="15"></text></g></g><g id="1vg8j031cy"><g><path d="M 1095,730 L 1015,685" fill="none" stroke="#f16c4d" stroke-width="1.5" stroke-linecap="round" stroke-linejoin="round"/></g></g><g id="5t0ptgojyb"><g><path d="M 1080,595 L 1015,685" fill="none" stroke="#f16c4d" stroke-width="1.5" stroke-linecap="round" stroke-linejoin="round"/></g></g><g id="7qxvopf2yu"><g><path d="M 820,730 L 910,685" fill="none" stroke="#f16c4d" stroke-width="1.5" stroke-linecap="round" stroke-linejoin="round"/></g></g><g id="1ssky8vkih"><g transform="translate(395 410)"><path d="M 134.65471267700195,32.35324323177338 L 67.32735633850098,64.70648646354675 L 0,32.35324323177338 L 67.32735633850098,0 Z" fill="rgb(250, 229, 147)" stroke="rgb(237, 119, 16)" stroke-width="2" vector-effect="non-scaling-stroke" stroke-dasharray=""/></g><g transform="translate(424.29, 431.93) rotate(0, 0, 0)" width="85" height="19"><text text-decoration="none" x="0" fill="#c75000" font-weight="bold" font-size="11pt" font-family="Arial"  y="15">Registers&#160;</text><text text-decoration="none" x="69" fill="#4b4b4b" font-size="10pt" font-family="noto_regular"  y="15"></text></g></g><g id="t42xw80vu7"><g><path d="M 375,600 L 465,475" fill="none" stroke="#ed7710" stroke-width="2" stroke-linecap="round" stroke-linejoin="round"/></g></g><g id="k26xpqvixd"><g><path d="M 465,410 L 670,355" fill="none" stroke="#ed7710" stroke-width="2" stroke-linecap="round" stroke-linejoin="round"/></g></g><g id="1chk117fbn"><g transform="translate(845 470)"><path d="M 134.65471267700195,32.35324323177338 L 67.32735633850098,64.70648646354675 L 0,32.35324323177338 L 67.32735633850098,0 Z" fill="rgb(250, 229, 147)" stroke="rgb(237, 119, 16)" stroke-width="2" vector-effect="non-scaling-stroke" stroke-dasharray=""/></g><g transform="translate(880.855, 491.93) rotate(0, 0, 0)" width="69" height="19"><text text-decoration="none" x="0" fill="#c75000" font-weight="bold" font-size="11pt" font-family="Arial"  y="15">Creates&#160;</text><text text-decoration="none" x="56" fill="#4b4b4b" font-size="10pt" font-family="noto_regular"  y="15"></text></g></g><g id="534hkqla93"><g><path d="M 915,470 L 720,380" fill="none" stroke="#ed7710" stroke-width="2" stroke-linecap="round" stroke-linejoin="round"/></g></g><g id="1fiikisr6m"><g><path d="M 965,660 L 915,535" fill="none" stroke="#ed7710" stroke-width="2" stroke-linecap="round" stroke-linejoin="round"/></g></g><g id="2m75en9ohg"><g transform="translate(785 1155)"><linearGradient id="09df4" x1="47.49940490722656" y1="-25.5" x2="47.49940490722656" y2="51" gradientUnits="userSpaceOnUse"><stop offset="0%" stop-color="rgba(255,255,255,1)"/><stop offset="100%" stop-color="rgba(156,201,37,1)"/></linearGradient><ellipse cx="47.49940490722656" cy="25.5" rx="47.49940490722656" ry="25.5" fill="url(#09df4)" stroke="#045f20" stroke-width="2" stroke-linecap="round" stroke-linejoin="round"/></g><g transform="translate(799.9994049072266, 1163) rotate(0, 32.5, 17.5)" width="65" height="35"><text text-decoration="none" x="6.5" fill="rgb(93, 128, 5)" font-weight="bold" font-size="10pt" font-family="Arial"  y="12">Surname</text><text text-decoration="none" x="58.5" fill="rgb(93, 128, 5)" font-weight="bold" font-size="10pt" font-family="Arial"  y="12"></text><text text-decoration="none" x="32.5" fill="#4b4b4b" font-size="10pt" font-family="noto_regular"  y="31"></text></g></g><g id="1p7vdutncc"><mask id="8ee61" x="692.75" y="997" width="150.25" height="171" maskUnits="userSpaceOnUse"><rect x="692.75" y="997" width="150.25" height="171" fill="white" /><rect x="761.375" y="1070" width="13" height="25" fill="black" /><rect x="761.375" y="1070" width="13" height="25" fill="black" /></mask><g mask="url(#8ee61)"><path d="M 830,1155 L 705.75,1010" fill="none" stroke="#f16c4d" stroke-width="1.5" stroke-linecap="round" stroke-linejoin="round"/></g><g transform="translate(764.375, 1073)" width="7" height="19"><text text-decoration="none" x="0.5" fill="rgb(0, 0, 0)" font-size="9pt" font-family="Arial"  y="15">v</text><text text-decoration="none" x="6.5" fill="#4b4b4b" font-size="10pt" font-family="noto_regular"  y="15"></text></g><g transform="translate(764.375, 1073)" width="7" height="19"><text text-decoration="none" x="0.5" fill="rgb(0, 0, 0)" font-size="9pt" font-family="Arial"  y="15">v</text><text text-decoration="none" x="6.5" fill="#4b4b4b" font-size="10pt" font-family="noto_regular"  y="15"></text></g></g></svg>